# xmcd CD database file
# Copyright (C) 1996 Ti Kan
#
# Track frame offsets:
# 	150
# 	15045
# 	35282
# 	54450
# 	75025
# 	89790
# 	104450
# 	122775
# 	138092
# 	155400
# 	168570
# 	187245
#
# Disc length: 2727 seconds
#
# Revision: 1
# Processed by: cddbd v1.4b41PL1 Copyright (c) Steve Scherf et al.
# Submitted via: DiscPlay 3.4.1
#
DISCID=8e0aa50c
DTITLE=Great Plains - Homeland
DYEAR=1900
DGENRE=
TTITLE0=Where's The Fire?
TTITLE1=Nothin' I Can Do About The Rain
TTITLE2=Sleepwalkin'
TTITLE3=Sentimental Fire
TTITLE4=Please Don't Walk Away
TTITLE5=A Dream That Never Sleeps
TTITLE6=Dancin' With The Wind
TTITLE7=Wolverton Mountain
TTITLE8=Healin' Hands
TTITLE9=Let's Talk About Love
TTITLE10=Homeland
TTITLE11=Coyote Choir
EXTD=
EXTT0=
EXTT1=
EXTT2=
EXTT3=
EXTT4=
EXTT5=
EXTT6=
EXTT7=
EXTT8=
EXTT9=
EXTT10=
EXTT11=
PLAYORDER=
